<svg width="25" height="20" viewBox="0 0 25 20" fill="none" xmlns="http://www.w3.org/2000/svg">
<path d="M21.3941 5.65504L21.3941 5.65508L21.3996 5.65067C21.6849 5.41815 21.8669 5.08249 21.9092 4.71744C21.9515 4.35247 21.8512 3.98412 21.628 3.69184C21.4046 3.39926 21.0752 3.20579 20.7097 3.15655C20.344 3.10729 19.9751 3.20683 19.6829 3.43147L19.6829 3.43143L19.6773 3.43586L12.5 9.11959L5.32512 3.43779C5.18188 3.32172 5.01704 3.23518 4.8399 3.18356C4.66151 3.13158 4.47456 3.11618 4.29006 3.13835C4.10555 3.16052 3.9276 3.21977 3.76655 3.3123C3.60551 3.40481 3.46475 3.52863 3.35211 3.67614L3.7495 3.97959L3.35211 3.67614C3.23949 3.82362 3.15713 3.99194 3.10942 4.17119C3.06171 4.35042 3.04949 4.53737 3.07339 4.72129C3.0973 4.90521 3.1569 5.08285 3.24908 5.24386C3.34061 5.40373 3.46257 5.54424 3.60836 5.657L11.6416 12.0187L11.6417 12.0188C11.8861 12.2122 12.188 12.3181 12.5 12.3181C12.812 12.3181 13.1139 12.2122 13.3583 12.0188L13.3584 12.0187L21.3941 5.65504ZM1.27299 1.28328C1.76588 0.78144 2.4322 0.500825 3.12528 0.5H21.8747C22.5678 0.500825 23.2341 0.78144 23.727 1.28328C24.2202 1.78549 24.4993 2.4683 24.5 3.18234V16.8177C24.4993 17.5317 24.2202 18.2145 23.727 18.7167C23.2341 19.2186 22.5676 19.4992 21.8745 19.5H3.12554C2.43237 19.4992 1.76594 19.2186 1.27299 18.7167C0.779808 18.2146 0.500814 17.5319 0.5 16.8179V3.1821C0.500814 2.46814 0.779808 1.78544 1.27299 1.28328Z" fill="#126CD2" stroke="#464D62"/>
</svg>
